<svg xmlns="http://www.w3.org/2000/svg" width="1200" height="630" viewBox="0 0 1200 630">
  <defs>
    <radialGradient id="g1" cx="85%" cy="-5%" r="60%"><stop offset="0%" stop-color="#e8b339" stop-opacity=".15"/><stop offset="100%" stop-color="#0e1218" stop-opacity="0"/></radialGradient>
    <radialGradient id="g2" cx="0%" cy="110%" r="55%"><stop offset="0%" stop-color="#37d9cf" stop-opacity=".1"/><stop offset="100%" stop-color="#0e1218" stop-opacity="0"/></radialGradient>
    <radialGradient id="orb" cx="38%" cy="35%" r="60%"><stop offset="0%" stop-color="#e8b339"/><stop offset="100%" stop-color="#b8861f"/></radialGradient>
    <linearGradient id="bar" x1="0%" y1="0%" x2="100%" y2="0%"><stop offset="0%" stop-color="#b8861f"/><stop offset="100%" stop-color="#e8b339"/></linearGradient>
  </defs>

  <!-- background -->
  <rect width="1200" height="630" fill="#0e1218"/>
  <rect width="1200" height="630" fill="url(#g1)"/>
  <rect width="1200" height="630" fill="url(#g2)"/>

  <!-- subtle grid lines -->
  <line x1="0" y1="315" x2="1200" y2="315" stroke="#2a3340" stroke-width="1"/>
  <line x1="600" y1="0" x2="600" y2="630" stroke="#2a3340" stroke-width="1"/>

  <!-- top border accent -->
  <rect x="0" y="0" width="1200" height="3" fill="url(#bar)"/>

  <!-- glyph icon -->
  <rect x="64" y="64" width="72" height="72" rx="16" fill="#171d28" stroke="#39455a" stroke-width="1.5"/>
  <circle cx="100" cy="100" r="18" fill="url(#orb)" filter="drop-shadow(0 0 10px #e8b33966)"/>

  <!-- title -->
  <text x="160" y="96" font-family="system-ui,sans-serif" font-weight="800" font-size="42" letter-spacing="3" text-transform="uppercase" fill="#e7e2d6">DROIDEX TRACKER</text>
  <text x="161" y="126" font-family="ui-monospace,monospace" font-size="14" letter-spacing="8" fill="#677082">STAR WARS · DROID TYCOON</text>

  <!-- divider -->
  <line x1="64" y1="166" x2="1136" y2="166" stroke="#2a3340" stroke-width="1"/>

  <!-- stat cards -->
  <!-- card 1: Droids -->
  <rect x="64" y="196" width="320" height="130" rx="12" fill="#171d28" stroke="#2a3340" stroke-width="1"/>
  <text x="84" y="226" font-family="ui-monospace,monospace" font-size="11" letter-spacing="6" fill="#677082">DROIDS COLLECTED</text>
  <text x="84" y="296" font-family="system-ui,sans-serif" font-weight="800" font-size="64" fill="#e7e2d6">50</text>
  <text x="168" y="296" font-family="ui-monospace,monospace" font-size="20" fill="#677082">/50</text>

  <!-- card 2: Tiers -->
  <rect x="440" y="196" width="320" height="130" rx="12" fill="#171d28" stroke="#2a3340" stroke-width="1"/>
  <text x="460" y="226" font-family="ui-monospace,monospace" font-size="11" letter-spacing="6" fill="#677082">TIERS UNLOCKED</text>
  <text x="460" y="296" font-family="system-ui,sans-serif" font-weight="800" font-size="64" fill="#e7e2d6">250</text>
  <text x="566" y="296" font-family="ui-monospace,monospace" font-size="20" fill="#677082">/250</text>

  <!-- card 3: CPS -->
  <rect x="816" y="196" width="320" height="130" rx="12" fill="#171d28" stroke="#39455a" stroke-width="1" filter="drop-shadow(0 0 12px #e8b33922)"/>
  <text x="836" y="226" font-family="ui-monospace,monospace" font-size="11" letter-spacing="6" fill="#677082">CREDITS / SEC</text>
  <text x="836" y="296" font-family="system-ui,sans-serif" font-weight="800" font-size="58" fill="#e8b339">∞</text>

  <!-- progress bar -->
  <rect x="64" y="356" width="1072" height="8" rx="4" fill="#1d2530" stroke="#2a3340" stroke-width="1"/>
  <rect x="64" y="356" width="1072" height="8" rx="4" fill="url(#bar)"/>

  <!-- feature pills -->
  <rect x="64" y="388" width="200" height="34" rx="8" fill="#1d2530" stroke="#39455a" stroke-width="1"/>
  <text x="164" y="410" text-anchor="middle" font-family="ui-monospace,monospace" font-size="12" letter-spacing="2" fill="#9aa3b0">REBIRTH PLANNER</text>

  <rect x="280" y="388" width="180" height="34" rx="8" fill="#1d2530" stroke="#39455a" stroke-width="1"/>
  <text x="370" y="410" text-anchor="middle" font-family="ui-monospace,monospace" font-size="12" letter-spacing="2" fill="#9aa3b0">WHAT'S NEXT</text>

  <rect x="476" y="388" width="200" height="34" rx="8" fill="#1d2530" stroke="#39455a" stroke-width="1"/>
  <text x="576" y="410" text-anchor="middle" font-family="ui-monospace,monospace" font-size="12" letter-spacing="2" fill="#9aa3b0">INCOME TRACKER</text>

  <rect x="692" y="388" width="180" height="34" rx="8" fill="#1d2530" stroke="#39455a" stroke-width="1"/>
  <text x="782" y="410" text-anchor="middle" font-family="ui-monospace,monospace" font-size="12" letter-spacing="2" fill="#9aa3b0">PROGRESS SYNC</text>

  <rect x="888" y="388" width="150" height="34" rx="8" fill="#1d2530" stroke="#39455a" stroke-width="1"/>
  <text x="963" y="410" text-anchor="middle" font-family="ui-monospace,monospace" font-size="12" letter-spacing="2" fill="#9aa3b0">XLSX EXPORT</text>

  <!-- tier legend -->
  <rect x="64" y="448" width="1072" height="1" fill="#2a3340"/>

  <!-- tier dots + labels -->
  <circle cx="96" cy="490" r="8" fill="#8a94a0"/>
  <text x="114" y="495" font-family="ui-monospace,monospace" font-size="13" letter-spacing="1" fill="#8a94a0">DEFAULT</text>
  <circle cx="248" cy="490" r="8" fill="#e8b339"/>
  <text x="266" y="495" font-family="ui-monospace,monospace" font-size="13" letter-spacing="1" fill="#e8b339">GOLD</text>
  <circle cx="376" cy="490" r="8" fill="#7fd7e8"/>
  <text x="394" y="495" font-family="ui-monospace,monospace" font-size="13" letter-spacing="1" fill="#7fd7e8">DIAMOND</text>
  <circle cx="534" cy="490" r="8" fill="#d98fd6"/>
  <text x="552" y="495" font-family="ui-monospace,monospace" font-size="13" letter-spacing="1" fill="#d98fd6">RAINBOW</text>
  <circle cx="700" cy="490" r="8" fill="#b9c4d0"/>
  <text x="718" y="495" font-family="ui-monospace,monospace" font-size="13" letter-spacing="1" fill="#b9c4d0">BESKAR</text>

  <!-- URL -->
  <text x="1136" y="495" text-anchor="end" font-family="ui-monospace,monospace" font-size="13" letter-spacing="1" fill="#677082">apps.legendaryleo.com/droidex</text>

  <!-- bottom bar -->
  <rect x="64" y="530" width="1072" height="1" fill="#2a3340"/>
  <text x="64" y="570" font-family="ui-monospace,monospace" font-size="13" letter-spacing="2" fill="#677082">FORTNITE · STAR WARS ISLAND · COMMUNITY TRACKER</text>
  <text x="1136" y="570" text-anchor="end" font-family="ui-monospace,monospace" font-size="13" letter-spacing="1" fill="#39455a">50 DROIDS · 250 TIERS</text>
</svg>
